<?xml version="1.0" standalone="no"?>
<!DOCTYPE svg PUBLIC "-//W3C//DTD SVG 1.1//EN" "http://www.w3.org/Graphics/SVG/1.1/DTD/svg11.dtd" >
<svg xmlns="http://www.w3.org/2000/svg" xmlns:xlink="http://www.w3.org/1999/xlink" version="1.1">
<metadata></metadata>
<defs>
<font id="playboxregular" horiz-adv-x="849" >
<font-face units-per-em="2048" ascent="1638" descent="-410" />
<missing-glyph horiz-adv-x="700" />
<glyph horiz-adv-x="0" />
<glyph horiz-adv-x="682" />
<glyph unicode="&#xa;" horiz-adv-x="0" />
<glyph unicode="&#xd;" horiz-adv-x="0" />
<glyph unicode=" "  horiz-adv-x="700" />
<glyph unicode="&#x09;" horiz-adv-x="700" />
<glyph unicode="&#xa0;" horiz-adv-x="700" />
<glyph unicode="!" horiz-adv-x="516" d="M98 159q0 79 64 127q42 31 95 31q43 0 81 -22q36 -21 57 -57t21 -79t-21.5 -79t-56.5 -58q-38 -22 -81 -22q-53 0 -95 31q-64 48 -64 128zM117 1061h280l-20 -182l-25 -218l-29 -253h-132l-29 253l-24 218z" />
<glyph unicode="&#x22;" horiz-adv-x="618" d="M98 857v387h157l-13 -193l-3 -2l-10 -192h-131zM356 857v387h162v-387h-162z" />
<glyph unicode="#" horiz-adv-x="1169" d="M98 557v132h272l10 233h99l8 -233h182v233h158l-11 -233h254v-153l-260 6l-7 -140h223v-137h-229l-9 -230l-119 -3v233h-166l9 -233h-171l10 233h-209v137h215l7 149zM492 549l6 -147h171v143z" />
<glyph unicode="&#x26;" horiz-adv-x="1165" d="M98 251q0 92 61.5 163.5t157.5 95.5q-56 36 -89.5 98.5t-33.5 136.5q0 113 73 193t176 80t175.5 -80t72.5 -193q0 -86 -44.5 -155.5t-116.5 -99.5h1q43 -46 108 -106q140 130 147 136q23 21 51.5 23.5t46.5 -12t23 -39t-19 -56.5q-61 -82 -124 -158q15 -11 33.5 -27.5 t29.5 -24.5t23 -12q37 76 87 80q36 3 49 -30q16 -39 -20 -87q62 24 89 -22q24 -41 0 -94q-30 -66 -107 -76q-13 -2 -26 -2q-52 0 -97 17t-72.5 41t-48 48t-28.5 41l-8 17q-34 -73 -108 -118.5t-165 -45.5q-123 0 -210 78.5t-87 189.5z" />
<glyph unicode="'" horiz-adv-x="360" d="M98 857v387h162v-387h-162z" />
<glyph unicode="(" horiz-adv-x="581" d="M98 477q0 121 22 239q40 217 139 354t223 137v-1460q-124 0 -223 137t-139 354q-22 118 -22 239z" />
<glyph unicode=")" horiz-adv-x="581" d="M98 -253v1460q124 0 223.5 -137t139.5 -354q21 -113 21 -239t-21 -239q-40 -217 -139.5 -354t-223.5 -137z" />
<glyph unicode="*" horiz-adv-x="638" d="M100.5 526.5q-4.5 25.5 7.5 43t53.5 15.5t101.5 -28q-18 70 20 116q28 34 58 22q43 -17 38 -110q-1 -13 -3 -28q91 23 137 1t20 -70.5t-114 -71.5q61 -85 40 -134q-15 -34 -56 -23q-57 17 -102 101q-41 -79 -101 -90q-43 -8 -59 23q-22 40 30 98q14 16 33 32 q-42 20 -70.5 49t-33 54.5z" />
<glyph unicode="+" horiz-adv-x="892" d="M98 335v122l213 -3l4 213l256 -18l11 -198l206 -3l5 -113h-204l10 -179l-293 -11l3 190h-211z" />
<glyph unicode="," horiz-adv-x="520" d="M100.5 211.5q-7.5 31.5 2.5 63t29 57.5t54 42t78 16q33 0 62.5 -14.5t50 -40t33.5 -58t10.5 -70.5t-17 -75t-50.5 -73.5t-89 -64.5q-111 -59 -99 -21q10 35 99 123q-48 0 -84.5 16t-54 42t-25 57.5z" />
<glyph unicode="-" d="M98 447v60q0 31 22.5 53.5t54.5 22.5h499q32 0 54 -22.5t22 -53.5v-60q0 -31 -22 -53.5t-54 -22.5h-499q-32 0 -54.5 22.5t-22.5 53.5z" />
<glyph unicode="." horiz-adv-x="684" d="M98 242q0 16 3 33q10 79 65.5 136t132.5 71q21 3 42 3q72 0 131 -37.5t89 -99.5q24 -51 24 -106q0 -16 -3 -33q-10 -79 -65 -135.5t-133 -70.5q-28 -4 -43 -4q-72 0 -130.5 38t-88.5 100q-24 51 -24 105z" />
<glyph unicode="/" horiz-adv-x="839" d="M98 -97l133 368l212 589l69 191h229l-69 -191l-212 -589l-132 -368h-230z" />
<glyph unicode="0" horiz-adv-x="944" d="M66 604q2 74 8 124q12 100 42 181.5t79.5 145t125 98t171.5 32.5q188 -4 284.5 -127t100.5 -330q0 -46 -3 -94q-4 -44 -6 -65q-8 -87 -21 -159q-15 -78 -37 -136t-57.5 -103t-89 -67.5t-124.5 -20.5q-168 4 -296 108t-165 277q-14 63 -12 136zM353 592q0 -82 9 -145 q13 -100 45.5 -154.5t78.5 -52.5q65 3 89 190q10 74 12 151v53q-1 14 -1.5 46t-0.5 48q-1 63 -5 110.5t-14 98.5t-30 79.5t-50 29.5q-35 1 -62 -42t-43 -113t-23 -163q-5 -63 -5 -118v-18z" />
<glyph unicode="1" horiz-adv-x="950" d="M82 -237l20 189l310 32l3 420l2 321l2 234l2 271h-294l363 457h121l30 -706l13 -282l12 -280l18 -422l197 -49l20 -185h-819z" />
<glyph unicode="2" horiz-adv-x="1329" d="M82 436q272 80 427.5 183.5t197.5 213.5q27 71 7 138q-9 30 -26 57q-29 47 -81 72.5t-111 25.5q-54 0 -103 -22t-88.5 -64.5t-60.5 -113t-14 -159.5l-130 10v562q223 42 396 46q569 15 573 -371q0 -4 -0.5 -13t-0.5 -14q-3 -79 -33 -173q-26 -79 -71.5 -160t-92 -141 t-89 -108t-69.5 -73l-27 -25l213 -28l174 -23l31 371l158 -32l-63 -649h-1084z" />
<glyph unicode="3" horiz-adv-x="718" d="M66 190q136 -15 258 0q192 25 192 127q0 70 -92 116q-31 16 -81.5 33t-91.5 30.5t-81 31t-64.5 42.5t-28.5 57q-3 27 9 51t29.5 40t51.5 34t57.5 27t65.5 24.5t59 22.5q88 35 92 69q7 60 -92 79q-82 17 -272 10v110q186 38 340 11q92 -16 151.5 -55t71.5 -96 q17 -76 -19.5 -138.5t-122.5 -102.5q-76 -36 -182 -49q15 -1 39 -5.5t86 -26.5t107 -55q107 -78 120 -200q15 -133 -72.5 -218.5t-246.5 -111.5q-118 -19 -266 -1z" />
<glyph unicode="4" horiz-adv-x="1738" d="M33 935l768 671l41 -607l343 -23l250 -18q16 46 51 75t78 29q58 0 99 -50t41 -120t-41 -120t-99 -50q-41 0 -74.5 26.5t-51.5 70.5l-244 20l-343 28l21 -295l16 -239l17 -249q126 -6 170 -73q28 -43 6 -78q-23 -37 -77 -21q-26 8 -55 29q4 -64 -3 -102.5t-22.5 -45 t-39 23t-50.5 94.5q-7 -43 -22 -75t-32 -42t-32.5 -4t-24.5 39.5t-7 87.5q-62 -65 -114 -61q-34 2 -37 33q-3 48 75 109q20 15 44 30l-17 323l-12 221l-16 313zM337 1034l295 -20l-15 285z" />
<glyph unicode="5" horiz-adv-x="980" d="M82 1390l369 13l413 15q-4 -122 -6 -128q-1 -4 -404 -28l-167 -10l4 -146q73 -4 167 -29q63 -16 119 -39t119 -65t107 -95t71.5 -132.5t22.5 -174.5q-5 -109 -31.5 -200t-65.5 -155t-93 -115t-108.5 -82t-117.5 -53q-88 -30 -185 -41t-150 -7l-54 4l-3 442 q74 -67 180 -107.5t206 -39.5q106 1 180.5 53.5t95.5 160.5q14 71 -3 129t-59.5 96t-98.5 61.5t-126 33.5q-96 13 -197 0t-181 -49zM324 492q0 47 34 81t81 34q48 0 81.5 -34t33.5 -81q0 -48 -33.5 -81.5t-81.5 -33.5q-47 0 -81 33.5t-34 81.5z" />
<glyph unicode="6" horiz-adv-x="970" d="M68 621.5q10 122.5 62 245.5t158.5 249.5t255.5 230.5l152 -127q-10 -8 -28 -22.5t-66 -58t-87.5 -84t-81 -93.5t-59.5 -95q143 11 261 -27.5t194 -136t76 -241.5q0 -131 -67 -223.5t-184 -123t-275 9.5q-107 30 -181 103.5t-107 172t-23 221z" />
<glyph unicode="7" horiz-adv-x="1095" d="M66 -86l287 427l122 180l329 489l-266 -21l-120 -9l-283 -22v402l268 -5l144 -3l515 -11v-460l-277 -391l-118 -166l-290 -410h-311z" />
<glyph unicode="8" horiz-adv-x="972" d="M66 383q0 102 60 187.5t161 131.5q-79 74 -79 181q0 91 59 160t150 88q27 6 57 6q31 0 58 -6q90 -19 149.5 -88.5t59.5 -159.5q0 -101 -73 -174q107 -44 172.5 -132t65.5 -194q0 -149 -123 -255t-297 -106t-297 106t-123 255z" />
<glyph unicode="9" horiz-adv-x="944" d="M66 694q16 217 223 271q89 23 214 17q122 -6 206 -47q100 -49 141.5 -142.5t19.5 -217.5q-12 -67 -60.5 -140t-113 -133t-137.5 -113t-134 -87t-102 -48l-119 117q65 21 126.5 52t104 60.5t75.5 56t48 42.5l16 16q-242 -25 -380.5 61.5t-127.5 234.5z" />
<glyph unicode=":" horiz-adv-x="419" d="M98 173q0 47 33 79.5t79 32.5q32 0 58.5 -16.5t40.5 -43.5q12 -23 12 -52q0 -47 -32.5 -79t-78.5 -32q-31 0 -58 16t-41 43q-13 26 -13 52zM98 478q0 28 14 53q14 27 40.5 42.5t57.5 15.5q46 0 78.5 -32.5t32.5 -78.5q0 -37 -23 -68q-33 -44 -88 -44q-46 0 -79 33t-33 79 z" />
<glyph unicode=";" horiz-adv-x="423" d="M99 193.5q2 26.5 17 49.5q32 49 97 49q60 0 92.5 -60t0.5 -125q-26 -54 -93 -89q-83 -44 -67 -10q12 27 67 81q-39 0 -66.5 15.5t-38.5 39t-9 50zM102 485q0 47 32.5 79.5t78.5 32.5q47 0 79.5 -32.5t32.5 -79.5q0 -46 -32.5 -78.5t-79.5 -32.5t-79 32t-32 79z" />
<glyph unicode="&#x3c;" horiz-adv-x="800" d="M98 416l584 469l5 -224l10 -378l5 -214z" />
<glyph unicode="=" horiz-adv-x="704" d="M98 208v157l254 -14l254 -13v-130h-508zM98 466v162h508v-162h-508z" />
<glyph unicode="&#x3e;" horiz-adv-x="800" d="M98 69l6 214l9 378l6 224l583 -469z" />
<glyph unicode="?" horiz-adv-x="1032" d="M98 919.5q1 57.5 25 125.5q38 108 108 154q62 42 103 2q18 -19 28 -53q48 65 110 85.5t81 -28.5q11 -28 2 -76q7 2 19 5.5t47.5 9t69 5t76.5 -11t77 -33.5q35 -24 59 -59q32 -43 28.5 -95.5t-27.5 -104.5t-68.5 -105t-94 -97.5t-104.5 -83.5q-25 -18 -52 -34 q-30 -18 -43 -27q-72 -47 -105.5 -83t-33 -61t30.5 -47q34 -25 51.5 -55.5t2 -55t-74.5 -24.5q-47 0 -91 26.5t-68 66t-10.5 90.5t72.5 94q68 49 148 110q56 45 97 80q144 126 124 180q-19 52 -95 67q-119 25 -278 -63q-74 -40 -121.5 -36.5t-70.5 39.5t-22 93.5zM207 -54 q0 57 60.5 97.5t145.5 40.5q39 0 72 -9q43 -10 76 -34q57 -41 57 -95q0 -58 -60 -98.5t-145 -40.5q-20 0 -56 6q-49 10 -83 30q-67 41 -67 103z" />
<glyph unicode="A" horiz-adv-x="1464" d="M0 2l77 230h186l358 1061h-191l53 156h659l64 -1217h202l34 -230h-1442z" />
<glyph unicode="&#xc4;" horiz-adv-x="1464" d="M0 2l77 230h186l358 1061h-191l53 156h659l64 -1217h202l34 -230h-1442z" />
<glyph unicode="&#xc3;" horiz-adv-x="1464" d="M0 2l77 230h186l358 1061h-191l53 156h659l64 -1217h202l34 -230h-1442z" />
<glyph unicode="&#xc2;" horiz-adv-x="1464" d="M0 2l77 230h186l358 1061h-191l53 156h659l64 -1217h202l34 -230h-1442z" />
<glyph unicode="&#xc1;" horiz-adv-x="1464" d="M0 2l77 230h186l358 1061h-191l53 156h659l64 -1217h202l34 -230h-1442z" />
<glyph unicode="&#xc0;" horiz-adv-x="1464" d="M0 2l77 230h186l358 1061h-191l53 156h659l64 -1217h202l34 -230h-1442z" />
<glyph unicode="B" horiz-adv-x="2017" d="M48 101q34 54 110 65q15 2 30 2q23 0 47 -5q-26 33 -28.5 67t15.5 58q19 24 50 40q27 13 63 14h13q44 -2 89 -26v1062h-202v147q128 20 227 23h742q287 -11 401 -146q57 -68 57 -148q0 -29 -7 -59q-24 -100 -114 -160q-23 -15 -48 -26q114 -16 217 -82q144 -92 204 -247 q37 -95 37 -207q0 -55 -13 -113q-21 -97 -83 -181q-97 -131 -267 -203.5t-360 -72.5h-290h-67h-498h-32q-219 6 -286 90q-23 29 -23 58q0 25 16 50z" />
<glyph unicode="C" horiz-adv-x="1486" d="M66 671q0 151 48 260.5t136 171.5q90 62 210 89q86 19 185 19q41 0 84 -3q149 -11 314 -51.5t345 -110.5v-228h-202v-5q-63 0 -109 -28q-47 -28 -67 -70q-21 -43 -21 -94q-1 -49 19 -91q20 -43 62.5 -73.5t100.5 -34.5q141 2 217 6v-209q-168 -40 -311 -64 q-143 -25 -281 -33q-54 -3 -104 -3q-76 0 -142 8q-108 13 -200.5 51t-154 102t-95.5 162.5t-34 228.5z" />
<glyph unicode="D" horiz-adv-x="1177" d="M98 580v6q0 34 33 64q36 32 106 43q-87 27 -119 71q-16 22 -16 44t16 44q32 44 119 72q-52 15 -86 39.5t-43 52.5q-2 6 -2 13q0 23 25 47q32 31 106 56q-32 9 -59 23.5t-43 32t-24.5 36.5t-4 36.5t18 31.5t43 22.5t69.5 8.5q91 0 162 -5q75 -5 130 -14q53 -8 76 -14 q506 -113 506 -625q0 -96 -25 -179t-65.5 -144t-99 -112t-119 -84.5t-131.5 -59.5q-67 -25 -142 -43q-22 -5 -85 -17q-116 -20 -207 -20q-43 0 -73.5 19t-40 47t-4 58t37 55.5t80.5 34.5q-73 28 -103 68q-16 22 -16 46q0 20 11 40q25 46 108 86q-63 15 -99.5 49.5 t-39.5 70.5z" />
<glyph unicode="E" horiz-adv-x="1396" d="M98 -19v1428h1215l-388 -207v-385l388 207v-230l-388 -208v-385l388 207v-427h-1215z" />
<glyph unicode="&#xca;" horiz-adv-x="1396" d="M98 -19v1428h1215l-388 -207v-385l388 207v-230l-388 -208v-385l388 207v-427h-1215z" />
<glyph unicode="&#xc9;" horiz-adv-x="1396" d="M98 -19v1428h1215l-388 -207v-385l388 207v-230l-388 -208v-385l388 207v-427h-1215z" />
<glyph unicode="&#xc8;" horiz-adv-x="1396" d="M98 -19v1428h1215l-388 -207v-385l388 207v-230l-388 -208v-385l388 207v-427h-1215z" />
<glyph unicode="F" horiz-adv-x="1296" d="M98 916v10q0 40 28 76q32 42 101 60q-73 85 -73 149q0 25 12 47q42 76 201 77h846l-7 -212l-8 -209l-223 2l-318 1v-175h531v-204l-229 22l-302 29v-594h-290q-140 0 -211 73q-41 41 -41 85q0 15 5 30q18 54 90 80q-41 16 -68 44q-26 28 -34 61q-2 7 -2 13q0 27 24 55 q30 36 97 63q-50 26 -76.5 49.5t-34.5 55.5q-2 7 -2 15q0 26 21 56q28 40 92 89q-56 23 -90.5 65.5t-38.5 86.5z" />
<glyph unicode="G" horiz-adv-x="1445" d="M66 598v11v56q5 139 34 248q18 66 43.5 122.5t70 114.5t101.5 98.5t141 66t185 25.5h215q101 0 184 -27.5t135 -71.5t91.5 -97t59 -106t31 -97t13.5 -71l3 -28l7 -177q0 -108 -5 -185.5t-18.5 -152.5t-38.5 -125t-64 -93t-96 -67.5t-133.5 -38t-176.5 -13.5h-214 q-131 0 -230.5 30t-162.5 86t-100.5 126t-55.5 160q-19 95 -19 206z" />
<glyph unicode="H" horiz-adv-x="1667" d="M82 833v160h216v76h-216v89h216v81h-216v172h666v-578h170v578h642v-172h-138v-81h138v-89h-138v-76h138v-160h-138v-619l162 -32v-263h-708v563h-86v-563h-698v189l206 16v709h-216z" />
<glyph unicode="I" horiz-adv-x="526" d="M82 136q0 91 72 145q49 36 109 36q50 0 92 -25q40 -24 64 -65.5t24 -90.5t-24 -90t-64 -65q-42 -25 -92 -25q-62 0 -109 36q-72 54 -72 144zM103 1163h319l-23 -207l-28 -249l-33 -287h-151l-32 287l-28 249z" />
<glyph unicode="&#xce;" horiz-adv-x="526" d="M82 136q0 91 72 145q49 36 109 36q50 0 92 -25q40 -24 64 -65.5t24 -90.5t-24 -90t-64 -65q-42 -25 -92 -25q-62 0 -109 36q-72 54 -72 144zM103 1163h319l-23 -207l-28 -249l-33 -287h-151l-32 287l-28 249z" />
<glyph unicode="&#xcd;" horiz-adv-x="526" d="M82 136q0 91 72 145q49 36 109 36q50 0 92 -25q40 -24 64 -65.5t24 -90.5t-24 -90t-64 -65q-42 -25 -92 -25q-62 0 -109 36q-72 54 -72 144zM103 1163h319l-23 -207l-28 -249l-33 -287h-151l-32 287l-28 249z" />
<glyph unicode="&#xcc;" horiz-adv-x="526" d="M82 136q0 91 72 145q49 36 109 36q50 0 92 -25q40 -24 64 -65.5t24 -90.5t-24 -90t-64 -65q-42 -25 -92 -25q-62 0 -109 36q-72 54 -72 144zM103 1163h319l-23 -207l-28 -249l-33 -287h-151l-32 287l-28 249z" />
<glyph unicode="J" horiz-adv-x="1593" d="M65 567q-3 29 22 55t75 34q-48 57 -50 103q-1 3 -1 6q0 42 33 67q34 26 90 39q49 11 107 11h18q54 -2 90.5 -9t68 -23.5t42.5 -49.5q5 -17 5 -38q0 -20 -5 -44q-42 -189 -42 -311q0 -38 4 -69q17 -133 118 -153q18 -3 41 -3q33 0 56 8q78 27 120 159t59 415q6 99 6 106 q2 52 3 111q2 85 3 147h-173q-81 0 -127 26q-40 22 -40 54q0 6 1 12q8 39 72 73q-47 39 -52 77v7q0 33 41 55q46 26 139 26h654q46 0 74 -22.5t32 -51.5t-15.5 -59t-60.5 -44q39 -21 61.5 -43t24 -41.5t-12.5 -35t-46.5 -24.5t-78.5 -9h-131q29 -81 47 -147q19 -64 29 -111 q11 -50 21 -106q22 -128 22 -239q0 -254 -114 -418q-163 -235 -511 -235h-27q-59 1 -117 11q-67 11 -123 33t-94.5 49t-69 63.5t-48.5 69t-31.5 73.5t-19.5 70t-11 64q-42 12 -69 25.5t-46.5 34.5t-8.5 50.5t55 66.5q-48 6 -77 31t-32 54z" />
<glyph unicode="K" horiz-adv-x="1185" d="M66 90l17 103l19 111l148 14v834l-105 22l11 106l8 79h322v-364l65 91l196 273h339v-455h-147l-18 253l-65 -71l-284 -308l249 -326l118 -154l41 180h106v-388h-411l-155 362l-78 184l7 -184l13 -362h-396z" />
<glyph unicode="L" horiz-adv-x="1282" d="M66 -88l23 222l154 6v1089h-118l25 188h461l-5 -383l-2 -140l-5 -375l-1 -115l-4 -250l135 6v394l428 -48l4 -92l22 -502h-1117z" />
<glyph unicode="M" horiz-adv-x="1597" d="M66 1191q0 17 11.5 28t35.5 15t40.5 5t46.5 1h100h112h310q33 0 47.5 -52t15.5 -126q1 -50 1 -100v-50q0 -4 -1 -7q-1 -70 9 -119q10 -52 34 -52q30 0 40 79q8 61 9 133q0 20 -1 41q-1 26 -1 51q0 66 6 123q8 79 33 79h251h112h80q112 0 132 -40q4 -8 4 -16 q0 -21 -32 -41l-16 -9v-894q56 -13 77 -50q10 -17 10 -34q0 -18 -12 -34q-24 -32 -79 -32h-164h-112h-79q-40 0 -63.5 9.5t-29 23.5t-2.5 29.5t11.5 27.5t17.5 18q21 13 28.5 36.5t7.5 84.5q0 19 2 57.5t3 68t0 60.5t-8.5 48t-20.5 17t-23.5 -10t-19 -31t-13.5 -40 t-13.5 -52.5t-14.5 -53.5q-5 -18 -16 -60t-19 -69t-20 -58.5t-26 -47.5t-29 -16q-16 0 -28.5 9.5t-25 32t-20 40t-21 55t-21.5 55.5q-8 19 -24 61t-26.5 67.5t-24 55.5t-25.5 44.5t-23 14.5q-26 0 -31 -36q-3 -20 -3 -56q0 -29 2 -68q1 -19 1.5 -48t1 -43t3.5 -33.5t9.5 -30 t19.5 -21t32 -16.5q37 -12 52.5 -42.5t4 -56.5t-42.5 -26h-236h-112h-129q-68 0 -87 37q-16 30 17 54q32 22 90 22v931h-13.5t-30 3t-38 8.5t-30 17t-13.5 28.5z" />
<glyph unicode="N" horiz-adv-x="1380" d="M98 -61l9 407l274 -407h-283zM107 346l5 235l2 84l3 116l13 609h949q234 0 234 -44q0 -36 -138 -79q-2 -1 -5 -2q56 -19 84 -33t34.5 -27.5t-19.5 -25.5t-84 -25q105 -46 105 -80q0 -47 -203 -55l7 -354l2 -84l5 -235l8 -407h-336l-274 407h-392z" />
<glyph unicode="O" horiz-adv-x="1273" d="M66 584v21q0 143 66 267t180 203.5t253 96.5q31 4 71 4q80 0 163 -24q138 -40 243 -145q91 -91 134 -217q27 -78 30 -163q0 -3 0.5 -11t0.5 -11q0 -143 -66 -267t-180.5 -203t-253.5 -96q-31 -4 -71 -4q-85 0 -163 24q-139 42 -242 145q-93 95 -135 217q-27 78 -30 163z " />
<glyph unicode="&#xd6;" horiz-adv-x="1273" d="M66 584v21q0 143 66 267t180 203.5t253 96.5q31 4 71 4q80 0 163 -24q138 -40 243 -145q91 -91 134 -217q27 -78 30 -163q0 -3 0.5 -11t0.5 -11q0 -143 -66 -267t-180.5 -203t-253.5 -96q-31 -4 -71 -4q-85 0 -163 24q-139 42 -242 145q-93 95 -135 217q-27 78 -30 163z " />
<glyph unicode="&#xd5;" horiz-adv-x="1273" d="M66 584v21q0 143 66 267t180 203.5t253 96.5q31 4 71 4q80 0 163 -24q138 -40 243 -145q91 -91 134 -217q27 -78 30 -163q0 -3 0.5 -11t0.5 -11q0 -143 -66 -267t-180.5 -203t-253.5 -96q-31 -4 -71 -4q-85 0 -163 24q-139 42 -242 145q-93 95 -135 217q-27 78 -30 163z " />
<glyph unicode="&#xd4;" horiz-adv-x="1273" d="M66 584v21q0 143 66 267t180 203.5t253 96.5q31 4 71 4q80 0 163 -24q138 -40 243 -145q91 -91 134 -217q27 -78 30 -163q0 -3 0.5 -11t0.5 -11q0 -143 -66 -267t-180.5 -203t-253.5 -96q-31 -4 -71 -4q-85 0 -163 24q-139 42 -242 145q-93 95 -135 217q-27 78 -30 163z " />
<glyph unicode="&#xd3;" horiz-adv-x="1273" d="M66 584v21q0 143 66 267t180 203.5t253 96.5q31 4 71 4q80 0 163 -24q138 -40 243 -145q91 -91 134 -217q27 -78 30 -163q0 -3 0.5 -11t0.5 -11q0 -143 -66 -267t-180.5 -203t-253.5 -96q-31 -4 -71 -4q-85 0 -163 24q-139 42 -242 145q-93 95 -135 217q-27 78 -30 163z " />
<glyph unicode="&#xd2;" horiz-adv-x="1273" d="M66 584v21q0 143 66 267t180 203.5t253 96.5q31 4 71 4q80 0 163 -24q138 -40 243 -145q91 -91 134 -217q27 -78 30 -163q0 -3 0.5 -11t0.5 -11q0 -143 -66 -267t-180.5 -203t-253.5 -96q-31 -4 -71 -4q-85 0 -163 24q-139 42 -242 145q-93 95 -135 217q-27 78 -30 163z " />
<glyph unicode="P" horiz-adv-x="1183" d="M16 -133h189v1398h-189l30 358q154 13 284 13q43 0 84 -1q189 -7 329.5 -44.5t225.5 -101.5t125 -147q40 -81 40 -182q0 -70 -22 -132q-22 -58 -57 -101t-89 -79.5t-109.5 -61t-129 -46t-137.5 -34.5t-143 -26l22 -645l12 -341h-413z" />
<glyph unicode="Q" horiz-adv-x="1437" d="M66 697q0 120 48 230t129 189t193.5 126t235.5 47q165 0 304.5 -79t221 -215.5t81.5 -297.5q0 -165 -86 -304l178 -133l-83 -220l-205 221q-174 -156 -411 -156q-123 0 -235.5 47t-193.5 126t-129 189t-48 230z" />
<glyph unicode="R" horiz-adv-x="989" d="M82 158l22 658l6 168l5 146q147 30 267 39q50 4 94 3q61 0 109 -6q83 -12 144 -38t95 -65.5t50 -83.5t16 -95q0 -39 -5.5 -70t-19.5 -62t-37.5 -54t-58.5 -44t-83 -33q-50 -12 -114 -21q-55 -8 -123 -8h-23q-82 2 -182 7l465 -332l-4 212l164 -6v-315h-787z" />
<glyph unicode="S" horiz-adv-x="1456" d="M81 898q1 37 15 81q38 124 177 201.5t335 79.5q5 0 10 1q192 0 415 -90v138h317l-29 -435q-172 28 -459 99q-197 50 -265 69q-4 1 -21 4q-8 1 -14 1q-33 0 -50 -20q-20 -24 -3.5 -55t61.5 -41h3q66 -14 98 -20q19 -3 52.5 -10t43.5 -9q64 -12 94 -19q60 -13 108 -25.5 t97.5 -29t87.5 -34t74.5 -40t61.5 -48.5t44 -58q20 -32 29 -70q10 -40 10 -88q0 -44 -11 -94q-24 -123 -93 -203t-159 -110t-193 -38q-33 -3 -65 -3q-68 0 -136 12q-98 17 -178.5 36t-129.5 37l-49 18l-12 -114h-265v600l226 -22q-2 -12 -2 -23q0 -64 54 -97q63 -39 183 -46 q40 -2 78 -3q12 0 24 1q139 3 214 17q104 19 108 64q2 28 -21 47t-87 36q-42 11 -100 21q-70 12 -99 16q-10 1 -22 3t-27.5 4.5t-24.5 3.5q-6 1 -16 2.5t-15 1.5q-65 9 -112 17t-100 19.5t-89 24.5t-71.5 31t-55.5 41q-19 23 -33 52q-13 27 -13 61v5z" />
<glyph unicode="T" horiz-adv-x="1355" d="M66 672v836l469 5l237 2l518 6l-11 -187l-7 -118l-14 -253l-4 -69l-13 -222h-370l4 -338l7 -525h-445v863h-371z" />
<glyph unicode="U" horiz-adv-x="1499" d="M67 803q-1 42 -1 83q0 90 4 168q4 114 14 186l10 71h1310q11 -69 19 -176q7 -88 9 -205v-31q0 -117 -13 -234q-14 -128 -46 -238q-37 -129 -96 -215q-52 -76 -120 -122q-104 -71 -248 -71h-321q-143 0 -247.5 71.5t-157.5 185t-83.5 251.5t-32.5 276z" />
<glyph unicode="&#xdb;" horiz-adv-x="1499" d="M67 803q-1 42 -1 83q0 90 4 168q4 114 14 186l10 71h1310q11 -69 19 -176q7 -88 9 -205v-31q0 -117 -13 -234q-14 -128 -46 -238q-37 -129 -96 -215q-52 -76 -120 -122q-104 -71 -248 -71h-321q-143 0 -247.5 71.5t-157.5 185t-83.5 251.5t-32.5 276z" />
<glyph unicode="&#xda;" horiz-adv-x="1499" d="M67 803q-1 42 -1 83q0 90 4 168q4 114 14 186l10 71h1310q11 -69 19 -176q7 -88 9 -205v-31q0 -117 -13 -234q-14 -128 -46 -238q-37 -129 -96 -215q-52 -76 -120 -122q-104 -71 -248 -71h-321q-143 0 -247.5 71.5t-157.5 185t-83.5 251.5t-32.5 276z" />
<glyph unicode="&#xd9;" horiz-adv-x="1499" d="M67 803q-1 42 -1 83q0 90 4 168q4 114 14 186l10 71h1310q11 -69 19 -176q7 -88 9 -205v-31q0 -117 -13 -234q-14 -128 -46 -238q-37 -129 -96 -215q-52 -76 -120 -122q-104 -71 -248 -71h-321q-143 0 -247.5 71.5t-157.5 185t-83.5 251.5t-32.5 276z" />
<glyph unicode="V" horiz-adv-x="1241" d="M16 1019h748q47 1 88 1q306 0 306 -59q0 -27 -62 -49q-64 -22 -126 -39t-61 -33q0 -14 40 -23q39 -8 86 -11t85 -11t37 -22q-1 -18 -66 -33t-129.5 -29.5t-64.5 -30.5t57.5 -22.5t115.5 -19t58 -38.5q0 -20 -58 -29.5t-115.5 -17t-57.5 -23.5t52.5 -30t105.5 -28.5 t53 -30.5t-56 -28.5t-111.5 -25t-55.5 -27.5t55.5 -24.5t111.5 -21.5q55 -12 54 -32q0 -16 -39 -26q-38 -9 -83.5 -11.5t-83.5 -10.5q-40 -8 -40 -25q0 -19 52 -31q54 -12 108 -22t54 -25.5t-52 -26t-104.5 -22t-52.5 -29.5t55.5 -27.5t111 -19.5t56.5 -26t-11.5 -26 t-44 -16t-78 -8.5t-119.5 -2.5h-445zM68 1275q0 53 37.5 90.5t90.5 37.5t90.5 -37.5t37.5 -90.5t-37.5 -90.5t-90.5 -37.5t-90.5 37.5t-37.5 90.5zM489 1275q0 42 29.5 71t71.5 29t71.5 -29t29.5 -71t-29.5 -71.5t-71.5 -29.5t-71.5 29.5t-29.5 71.5zM872 1275q0 42 29.5 71 t71.5 29t71.5 -29t29.5 -71t-29.5 -71.5t-71.5 -29.5t-71.5 29.5t-29.5 71.5z" />
<glyph unicode="W" horiz-adv-x="1878" d="M40 762q-8 18 -8 35q0 34 32 65q50 47 161 65q-66 24 -108 57q-41 34 -55 68q-8 21 -9 42q0 12 3 24q8 34 35.5 59.5t75.5 40.5q45 14 100 14h7q72 -2 133 -26.5t108 -64.5t95 -110t86 -142.5t88 -182.5l91 245h-1q-82 19 -135 77t-53 133q0 90 74 154t178 64t178 -64 t74 -154q0 -75 -53 -133.5t-135 -76.5l90 -245q50 110 88 182.5t86 142.5t95.5 110t108.5 64.5t133 26.5h12q64 0 113 -20q54 -22 76 -56q19 -31 19 -65q-1 -5 -1 -11q-4 -40 -48.5 -82.5t-122.5 -70.5q148 -24 184 -96q9 -19 9 -37q0 -30 -26 -56q-39 -40 -105 -40 q-14 0 -28 2q-78 9 -156 70q-14 -68 -40 -164h-1q-27 -101 -29 -106q-158 -549 -276 -549q-45 0 -87 45.5t-69.5 110t-48.5 129t-30 110.5l-10 45q-2 -9 -5 -25t-15 -61.5t-25.5 -87t-35 -92.5t-44.5 -87.5t-54.5 -61.5t-64.5 -25q-28 0 -59 34t-59 86.5t-57 126t-52 143 t-46 147.5q-30 106 -38 137l-36 145q-93 -72 -180 -72q-19 0 -37 3q-66 13 -90 61z" />
<glyph unicode="X" horiz-adv-x="1146" d="M33 55l539 610l540 -610h-1079zM33 1275h1079l-540 -610zM94 665q0 37 26 62.5t63 25.5t62.5 -25.5t25.5 -62.5t-25.5 -63t-62.5 -26t-63 26t-26 63zM822 665q0 58 41 99t99 41t99 -41t41 -99t-41 -99t-99 -41t-99 41t-41 99z" />
<glyph unicode="Y" horiz-adv-x="1071" d="M16 1212l14 219h1012l12 -203l-210 -3l-243 -455l37 -728l93 6l24 -150h-439l18 124l97 6l19 756l-222 431z" />
<glyph unicode="Z" horiz-adv-x="1765" d="M49 248l357 332l-214 340l337 517l934 -25l236 -447l-117 -164l-95 -132l153 -314l-69 -124l-85 -155l-102 -183h-1055z" />
<glyph unicode="[" horiz-adv-x="520" d="M98 -209v1372h324v-134h-162v-977h162v-261h-324z" />
<glyph unicode="\" horiz-adv-x="839" d="M98 1051h230l68 -191l213 -589l132 -368h-229l-133 368l-212 589z" />
<glyph unicode="]" horiz-adv-x="520" d="M98 52h162v977h-162v134h324v-1372h-324v261z" />
<glyph unicode="_" horiz-adv-x="1230" d="M98 398v158l232 6l228 6l264 8l310 8v-214l-286 8l-317 8l-189 5z" />
<glyph unicode="a" horiz-adv-x="1298" d="M66 273v5q0 60 21 106q22 48 56 80t91.5 57.5t109.5 40.5t128 31q95 20 133 82q27 44 27 90q0 19 -5 39q-8 37 -31 63t-54 32q-17 3 -34 3q-64 0 -112 -51q-58 -62 -58 -177v-8l-194 15l58 543l161 -10l-25 -235q106 78 220 110q75 21 144 21q36 0 70 -6q100 -16 180 -93 t116 -207q27 -97 27 -218q0 -165 -50 -373l186 -18l16 -215h-407v333q-42 -99 -119 -176.5t-161 -117t-160 -39.5q-59 0 -115.5 16.5t-106 49.5t-80.5 91.5t-32 135.5z" />
<glyph unicode="&#xe4;" horiz-adv-x="1298" d="M66 273v5q0 60 21 106q22 48 56 80t91.5 57.5t109.5 40.5t128 31q95 20 133 82q27 44 27 90q0 19 -5 39q-8 37 -31 63t-54 32q-17 3 -34 3q-64 0 -112 -51q-58 -62 -58 -177v-8l-194 15l58 543l161 -10l-25 -235q106 78 220 110q75 21 144 21q36 0 70 -6q100 -16 180 -93 t116 -207q27 -97 27 -218q0 -165 -50 -373l186 -18l16 -215h-407v333q-42 -99 -119 -176.5t-161 -117t-160 -39.5q-59 0 -115.5 16.5t-106 49.5t-80.5 91.5t-32 135.5z" />
<glyph unicode="&#xe3;" horiz-adv-x="1298" d="M66 273v5q0 60 21 106q22 48 56 80t91.5 57.5t109.5 40.5t128 31q95 20 133 82q27 44 27 90q0 19 -5 39q-8 37 -31 63t-54 32q-17 3 -34 3q-64 0 -112 -51q-58 -62 -58 -177v-8l-194 15l58 543l161 -10l-25 -235q106 78 220 110q75 21 144 21q36 0 70 -6q100 -16 180 -93 t116 -207q27 -97 27 -218q0 -165 -50 -373l186 -18l16 -215h-407v333q-42 -99 -119 -176.5t-161 -117t-160 -39.5q-59 0 -115.5 16.5t-106 49.5t-80.5 91.5t-32 135.5z" />
<glyph unicode="&#xe2;" horiz-adv-x="1298" d="M66 273v5q0 60 21 106q22 48 56 80t91.5 57.5t109.5 40.5t128 31q95 20 133 82q27 44 27 90q0 19 -5 39q-8 37 -31 63t-54 32q-17 3 -34 3q-64 0 -112 -51q-58 -62 -58 -177v-8l-194 15l58 543l161 -10l-25 -235q106 78 220 110q75 21 144 21q36 0 70 -6q100 -16 180 -93 t116 -207q27 -97 27 -218q0 -165 -50 -373l186 -18l16 -215h-407v333q-42 -99 -119 -176.5t-161 -117t-160 -39.5q-59 0 -115.5 16.5t-106 49.5t-80.5 91.5t-32 135.5z" />
<glyph unicode="&#xe1;" horiz-adv-x="1298" d="M66 273v5q0 60 21 106q22 48 56 80t91.5 57.5t109.5 40.5t128 31q95 20 133 82q27 44 27 90q0 19 -5 39q-8 37 -31 63t-54 32q-17 3 -34 3q-64 0 -112 -51q-58 -62 -58 -177v-8l-194 15l58 543l161 -10l-25 -235q106 78 220 110q75 21 144 21q36 0 70 -6q100 -16 180 -93 t116 -207q27 -97 27 -218q0 -165 -50 -373l186 -18l16 -215h-407v333q-42 -99 -119 -176.5t-161 -117t-160 -39.5q-59 0 -115.5 16.5t-106 49.5t-80.5 91.5t-32 135.5z" />
<glyph unicode="&#xe0;" horiz-adv-x="1298" d="M66 273v5q0 60 21 106q22 48 56 80t91.5 57.5t109.5 40.5t128 31q95 20 133 82q27 44 27 90q0 19 -5 39q-8 37 -31 63t-54 32q-17 3 -34 3q-64 0 -112 -51q-58 -62 -58 -177v-8l-194 15l58 543l161 -10l-25 -235q106 78 220 110q75 21 144 21q36 0 70 -6q100 -16 180 -93 t116 -207q27 -97 27 -218q0 -165 -50 -373l186 -18l16 -215h-407v333q-42 -99 -119 -176.5t-161 -117t-160 -39.5q-59 0 -115.5 16.5t-106 49.5t-80.5 91.5t-32 135.5z" />
<glyph unicode="b" horiz-adv-x="1204" d="M49 23l14 141l165 11l8 107l5 83l6 74l4 72l32 463l-220 -39l36 245h350v-422q705 -13 705 -357q0 -131 -68 -212.5t-224 -123.5t-413 -42h-400z" />
<glyph unicode="c" horiz-adv-x="991" d="M49 452q1 27 14 51t27.5 37t27 31t14 33t-12.5 43q-24 44 -24 76q0 15 5 27q16 39 72 53t77 36q15 16 15 44q0 11 -2 24q-4 23 5.5 39t30.5 25t38.5 13t43.5 7q6 1 20.5 2.5t18 2.5t13.5 3.5t13.5 6.5t9.5 11.5t9.5 18t7.5 25.5q20 75 144 75q92 0 240 -41l8 -157l9 -178 l5 -102q-5 1 -14.5 1.5t-36 1.5t-50.5 -1t-52.5 -8.5t-49 -18t-33.5 -32.5t-11 -50q3 -39 30.5 -63.5t64.5 -31t74 -7.5t62 3l26 4l5 -106l8 -163l7 -134q-54 -27 -92 -39q-26 -8 -46 -8q-9 0 -17 2q-26 6 -37.5 12.5t-31.5 25.5q-5 5 -8 7q-12 11 -27 15t-34 0t-33 -8.5 t-37.5 -14.5t-34.5 -14q-19 -7 -35 -7q-22 0 -39 12q-30 22 -34 73q-2 24 -15 34.5t-29 10.5t-47 1.5t-56 7.5q-44 11 -63 25q-20 14 -20 43q0 28 22 77q12 31 1.5 43.5t-35 21.5t-50 13.5t-44 21t-17.5 44.5z" />
<glyph unicode="d" horiz-adv-x="1161" d="M49 307q0 154 109 263t264 109q112 0 206 -62q-1 36 -1 75q0 77 4 163q2 28 6 88q9 112 20 197q-1 2 -21.5 0t-52 3.5t-60.5 14t-47.5 32t-14.5 56.5q4 29 37 51q32 23 79 31q20 4 42 3q30 -1 65 -7q60 -12 112 -44q66 -42 86 -112q18 -64 18 -187v-25q0 -29 -2 -101 q-5 -205 -5 -292q75 -2 117 -21.5t46 -49.5q1 -4 1 -8q-1 -26 -23 -58q-26 -37 -82 -73q55 0 93 -33q31 -27 31 -63q0 -8 -1 -16q-8 -46 -74 -77q93 -20 121 -76q10 -20 11 -39q-1 -34 -33 -66q-50 -49 -156 -49q-130 0 -213 164q-51 -76 -133 -120t-176 -44 q-154 0 -263.5 109t-109.5 264z" />
<glyph unicode="e" horiz-adv-x="1073" d="M49 602q0 59 12 113q37 174 169.5 287.5t304.5 113.5q178 0 312.5 -120.5t165.5 -302.5q7 -42 7 -91q0 -25 -1 -37h-473q-8 -58 -9 -124q-1 -13 -1 -27q0 -33 4 -63q11 -91 53 -91q45 0 58 88q5 28 5 66q0 13 -1 27l-3 63h368l2 -63q-4 -52 -21 -103q-13 -38 -34 -71 t-58.5 -67t-86.5 -58t-123 -39t-164 -15q-138 0 -253.5 75.5t-177.5 200.5q-21 45 -31 77q-24 77 -24 161z" />
<glyph unicode="&#xea;" horiz-adv-x="1073" d="M49 602q0 59 12 113q37 174 169.5 287.5t304.5 113.5q178 0 312.5 -120.5t165.5 -302.5q7 -42 7 -91q0 -25 -1 -37h-473q-8 -58 -9 -124q-1 -13 -1 -27q0 -33 4 -63q11 -91 53 -91q45 0 58 88q5 28 5 66q0 13 -1 27l-3 63h368l2 -63q-4 -52 -21 -103q-13 -38 -34 -71 t-58.5 -67t-86.5 -58t-123 -39t-164 -15q-138 0 -253.5 75.5t-177.5 200.5q-21 45 -31 77q-24 77 -24 161z" />
<glyph unicode="&#xe9;" horiz-adv-x="1073" d="M49 602q0 59 12 113q37 174 169.5 287.5t304.5 113.5q178 0 312.5 -120.5t165.5 -302.5q7 -42 7 -91q0 -25 -1 -37h-473q-8 -58 -9 -124q-1 -13 -1 -27q0 -33 4 -63q11 -91 53 -91q45 0 58 88q5 28 5 66q0 13 -1 27l-3 63h368l2 -63q-4 -52 -21 -103q-13 -38 -34 -71 t-58.5 -67t-86.5 -58t-123 -39t-164 -15q-138 0 -253.5 75.5t-177.5 200.5q-21 45 -31 77q-24 77 -24 161z" />
<glyph unicode="&#xe8;" horiz-adv-x="1073" d="M49 602q0 59 12 113q37 174 169.5 287.5t304.5 113.5q178 0 312.5 -120.5t165.5 -302.5q7 -42 7 -91q0 -25 -1 -37h-473q-8 -58 -9 -124q-1 -13 -1 -27q0 -33 4 -63q11 -91 53 -91q45 0 58 88q5 28 5 66q0 13 -1 27l-3 63h368l2 -63q-4 -52 -21 -103q-13 -38 -34 -71 t-58.5 -67t-86.5 -58t-123 -39t-164 -15q-138 0 -253.5 75.5t-177.5 200.5q-21 45 -31 77q-24 77 -24 161z" />
<glyph unicode="f" horiz-adv-x="1325" d="M40.5 265q-16.5 22 0 43.5t64.5 31.5q-39 28 -39 68v6q4 51 66 69q28 9 65 9t82 -9q53 -10 93.5 -30t64.5 -41t43.5 -55t29 -59t21.5 -67q15 -51 41.5 -70.5t51 3t32.5 81.5q4 34 4 52v6q0 71 -24 160q-25 93 -57.5 169.5t-70 174t-54.5 164.5q-19 75 -19 130v15 q4 92 54.5 158.5t124.5 93.5q55 21 118 21q23 0 48 -3q90 -10 170 -60q29 31 50 31q33 0 47 -73q25 32 47 32q10 0 19 -6q23 -14 23 -53q0 -14 -3 -31q32 22 57 22q14 0 26 -6q30 -15 30 -62q0 -7 -1 -14q-4 -73 -40 -141t-101 -107q-43 -25 -89 -25q-24 0 -49 7 q-43 12 -73 39.5t-45.5 59t-28 62t-29.5 53.5t-41 28q-9 2 -18 2q-34 0 -52 -34q-20 -38 -20 -112q0 -13 1 -27q3 -85 30 -210h438q54 0 92.5 -38t38.5 -92q0 -53 -39 -92q-38 -38 -92 -38h-378q20 -109 25 -204q1 -26 1 -51q0 -75 -11 -138q-15 -85 -42.5 -138.5 t-65.5 -89.5t-75.5 -50.5t-75.5 -14.5q-116 0 -188.5 46.5t-124.5 158.5q-20 -3 -37 -3q-28 0 -48 9q-31 14 -29.5 42.5t37.5 57.5q-58 0 -68 37q-1 5 -1 10q0 31 49 58q-39 12 -55.5 34z" />
<glyph unicode="g" horiz-adv-x="1013" d="M49 934q0 17 1 26q11 137 119 231.5t257 94.5q144 0 250 -88q-10 49 -10 81q0 51 25 59q4 1 8 1q23 0 51 -36q11 -15 19 -31q16 85 50 87q23 2 36 -32q6 -17 6 -34q0 -18 -7 -37q35 20 58 20q19 0 29 -14q8 -11 8 -25q0 -20 -16 -47q-19 -30 -53 -54q2 -88 4 -129 q4 -82 7 -122q3 -42 8 -113t9 -127.5t6 -103.5q3 -73 3 -119q0 -23 -1 -39q-5 -156 -47 -255t-141 -143v-5q0 -56 -39.5 -96t-95.5 -40q-49 0 -86.5 31t-46.5 79q-254 13 -314 89q-15 19 -15 40q0 34 42 70q12 10 28 20q-52 27 -65.5 48.5t4 36.5t61.5 29q-49 26 -61.5 43.5 t2 28t56.5 22.5q-68 38 -68 69q0 9 6 18q25 33 117 33h5q33 -1 67 -6q43 -7 73.5 -22t48.5 -39t27 -43t20.5 -53.5t18.5 -50.5q8 -19 20 -35.5t26.5 -28.5t30 -17.5t31.5 0.5t30.5 22.5t26.5 51.5t20 85q0 4 1 12.5t2 12.5q9 75 9 151q0 83 -6 155q-111 -113 -278 -113 q-145 0 -252.5 90t-122.5 223q-2 13 -2 38z" />
<glyph unicode="h" horiz-adv-x="1081" d="M0 1345q2 65 19 147q17 -11 46 -27.5t109.5 -51t149.5 -48.5q86 -17 112 -97t27 -300v-177q0 -21 -0.5 -71t-0.5 -77q7 4 18.5 11t46 24t68.5 29q33 12 79 20q32 6 60 6q12 1 24 -1q38 -4 76.5 -26t64.5 -63q35 -55 49 -135q12 -64 12 -122v-28l-8 -140t-7 -107.5 t13 -52.5q6 -3 23.5 -13t23 -14.5t17.5 -17t16 -26t7 -37.5t2 -56q-67 15 -112 37.5t-72 50t-41 71.5t-18.5 88.5t-4.5 114.5v19q0 171 -9 229.5t-50 58.5q-38 0 -53 -127q-4 -42 -16 -334q-3 -68 -47 -107.5t-113.5 -52t-140 -16.5t-143 -10t-107.5 -22q24 142 131 164 l4 188l11 545l3 177l3 155q-30 -8 -58 -11t-61 1t-59.5 16.5t-49 40.5t-34.5 69q-10 36 -10 91v15z" />
<glyph unicode="i" horiz-adv-x="720" d="M49 519q0 50 57 77t187 34q56 2 91 2q55 0 83 -1q204 -10 204 -95q0 -25 -13 -44.5t-31.5 -30t-36.5 -17.5t-31 -9l-13 -2l13 -416l4 -137h-347l4 145l11 403q-7 1 -19.5 2.5t-44 8.5t-55.5 16t-43.5 26t-19.5 38zM49 1082q1 97 63 143q31 23 70.5 23t87.5 -23 q-7 26 -7 45q0 35 23 49q10 6 20 6q19 0 41 -21q26 -24 37 -69q28 80 54 80h2q22 -2 26 -45q1 -16 -1 -33q41 30 77 30q14 0 26 -4q46 -15 62 -72q7 -26 7 -59q0 -38 -10 -84q-12 -48 -41 -100.5t-62.5 -94t-65.5 -76t-53 -53.5l-21 -18q-335 147 -335 376z" />
<glyph unicode="&#xee;" horiz-adv-x="720" d="M49 519q0 50 57 77t187 34q56 2 91 2q55 0 83 -1q204 -10 204 -95q0 -25 -13 -44.5t-31.5 -30t-36.5 -17.5t-31 -9l-13 -2l13 -416l4 -137h-347l4 145l11 403q-7 1 -19.5 2.5t-44 8.5t-55.5 16t-43.5 26t-19.5 38zM49 1082q1 97 63 143q31 23 70.5 23t87.5 -23 q-7 26 -7 45q0 35 23 49q10 6 20 6q19 0 41 -21q26 -24 37 -69q28 80 54 80h2q22 -2 26 -45q1 -16 -1 -33q41 30 77 30q14 0 26 -4q46 -15 62 -72q7 -26 7 -59q0 -38 -10 -84q-12 -48 -41 -100.5t-62.5 -94t-65.5 -76t-53 -53.5l-21 -18q-335 147 -335 376z" />
<glyph unicode="&#xed;" horiz-adv-x="720" d="M49 519q0 50 57 77t187 34q56 2 91 2q55 0 83 -1q204 -10 204 -95q0 -25 -13 -44.5t-31.5 -30t-36.5 -17.5t-31 -9l-13 -2l13 -416l4 -137h-347l4 145l11 403q-7 1 -19.5 2.5t-44 8.5t-55.5 16t-43.5 26t-19.5 38zM49 1082q1 97 63 143q31 23 70.5 23t87.5 -23 q-7 26 -7 45q0 35 23 49q10 6 20 6q19 0 41 -21q26 -24 37 -69q28 80 54 80h2q22 -2 26 -45q1 -16 -1 -33q41 30 77 30q14 0 26 -4q46 -15 62 -72q7 -26 7 -59q0 -38 -10 -84q-12 -48 -41 -100.5t-62.5 -94t-65.5 -76t-53 -53.5l-21 -18q-335 147 -335 376z" />
<glyph unicode="&#xec;" horiz-adv-x="720" d="M49 519q0 50 57 77t187 34q56 2 91 2q55 0 83 -1q204 -10 204 -95q0 -25 -13 -44.5t-31.5 -30t-36.5 -17.5t-31 -9l-13 -2l13 -416l4 -137h-347l4 145l11 403q-7 1 -19.5 2.5t-44 8.5t-55.5 16t-43.5 26t-19.5 38zM49 1082q1 97 63 143q31 23 70.5 23t87.5 -23 q-7 26 -7 45q0 35 23 49q10 6 20 6q19 0 41 -21q26 -24 37 -69q28 80 54 80h2q22 -2 26 -45q1 -16 -1 -33q41 30 77 30q14 0 26 -4q46 -15 62 -72q7 -26 7 -59q0 -38 -10 -84q-12 -48 -41 -100.5t-62.5 -94t-65.5 -76t-53 -53.5l-21 -18q-335 147 -335 376z" />
<glyph unicode="j" horiz-adv-x="933" d="M18 171q-3 19 -3 34q0 46 22 67q23 22 47 -13q13 -19 21 -52q15 82 38 82q21 0 47 -64q5 67 29 67h1q23 -1 39 -57q3 -9 5 -18q18 -78 41 -117q21 -37 60 -37h6q47 4 65 49q16 40 16 108v23q0 5 -0.5 17.5t-0.5 19.5q-5 184 -10 299q-2 64 -8 156q-1 22 -1 40q0 83 29 92 q4 1 7 1q26 0 57 -57q4 -7 8 -16q9 48 25.5 68t33 1t24.5 -75q3 10 8 24.5t22 38t36 22.5q26 -1 36 -61q8 -54 8 -186v-28q0 -30 -1.5 -95.5t-1.5 -88.5q-2 -89 -7 -152q-9 -103 -28.5 -175.5t-56.5 -128t-97.5 -82.5t-146.5 -27q-79 0 -142.5 23t-102.5 57t-66.5 80 t-40 84.5t-17.5 76.5zM245 1205q-5 18 -5 33q0 36 30 53q17 9 37 9q30 0 67 -22q30 -18 56 -48q-5 37 -5 62q0 30 7 46q12 29 37 1t45 -98q15 71 37.5 99t41.5 1t23 -105q11 41 24.5 67t25 30.5t21 -4t10.5 -37.5v-8q0 -27 -6 -63q53 80 111 86q5 1 9 1q38 0 51 -38 q5 -15 5 -31q0 -55 -54 -131q-45 -64 -122 -129h-239q-177 123 -207 226z" />
<glyph unicode="k" horiz-adv-x="1124" d="M82 1080h955l-501 -508l555 -509h-977l146 159l-172 87l161 122l-152 97l150 135l-150 121l160 115z" />
<glyph unicode="l" horiz-adv-x="829" d="M49 14q0 30 22 52.5t53.5 33.5t62.5 17.5t53 8.5l22 1l-2 376l-1 145l-1 165l-2 205q-59 9 -101.5 31t-62.5 50.5t-27 60.5q-2 11 -2 23q0 21 8 41q13 30 36 55t62.5 40t86.5 15q164 0 234 -117q53 -90 53 -224q0 -41 -5 -85q-8 -71 -9 -95q-8 -124 -9 -148 q-3 -56 -7 -189l-8 -349q23 52 60 80q36 27 72 27h3q38 -1 71 -19.5t52 -60.5q16 -35 16 -77q0 -9 -1 -18q-4 -48 -25 -82.5t-52.5 -55t-80 -32.5t-98 -16t-115.5 -4q-183 0 -270.5 33.5t-87.5 111.5z" />
<glyph unicode="m" horiz-adv-x="1343" d="M87 448q5 85 14 201q8 131 10 175q7 202 24.5 272.5t63.5 70.5q27 0 40 -18.5t14 -41.5t7.5 -41.5t24.5 -18.5q14 0 26.5 11.5t24 28t27.5 33t45 28t68 11.5t68.5 -15.5t47 -37.5t32.5 -43.5t34 -37t42 -15.5q28 0 50 22.5t35 49t41.5 49t67.5 22.5q40 0 68 -24t40 -52.5 t26.5 -52.5t30.5 -24t23.5 26t9.5 57.5t18.5 57.5t47.5 26q53 0 72 -111q12 -74 20 -347q1 -35 2 -60q1 -11 1.5 -34t0.5 -34q4 -97 5 -133q1 -49 1 -91q0 -145 -13 -222q-17 -99 -68 -99q-27 0 -43 21.5t-22 60.5q-4 39 -6 93q-1 23 -1 48q0 34 1 71q1 11 1 17.5v16.5v18 v66q-3 116 -23 201q-39 160 -142 160q-62 0 -97 -41t-51 -119q-15 -73 -17 -201q0 -2 -0.5 -5t-0.5 -5v-31v-55q2 -50 2 -84q0 -11 1 -23q0 -25 -1 -51q-1 -40 -5.5 -65t-13 -48t-25 -34t-39.5 -11q-32 0 -51.5 33t-25.5 86t-8 118q-1 32 -1 64.5t1 63.5q0 11 0.5 16.5 t0.5 14.5v16q0 11 0.5 32.5t0.5 31.5q-2 80 -10 137q-14 84 -51 128.5t-109 44.5q-143 0 -178 -173q-11 -51 -14 -129q-1 -23 -1 -72v-72q0 -133 -3 -174q-15 -166 -93 -166q-53 0 -66 110q-7 60 -7 143q0 71 5 159z" />
<glyph unicode="n" horiz-adv-x="1128" d="M66 296v36q0 115 11 210q18 159 67 279q78 194 233 264q82 37 187 37q116 0 204 -45q137 -70 211 -244q50 -117 70 -272q14 -107 14 -227q0 -33 -1 -68q-2 -63 -7 -124.5t-9 -91.5l-5 -29h-282q1 13 2 34.5t3 90.5q1 30 0 57q0 37 -1 72q-3 124 -16 235q-17 146 -49 231 q-25 69 -61 102q-33 31 -73 31q-41 0 -72 -31q-36 -34 -59 -102q-29 -80 -43 -231q-10 -107 -10 -224q0 -66 2.5 -132t5.5 -100l2 -33h-303q-19 117 -21 275z" />
<glyph unicode="o" horiz-adv-x="1392" d="M84 -53v140l270 5v-129zM85 827q16 135 112 239.5t246 154.5q109 36 227 36q45 0 91 -5q168 -19 303 -102q135 -82 205 -206q57 -101 57 -209q0 -25 -3 -50q-16 -135 -112 -239.5t-246 -154.5q-109 -36 -227 -36q-45 0 -91 5q-168 19 -303 102q-134 82 -204 206 q-57 102 -58 211q0 24 3 48zM543 -26v122l302 6v-109zM995 2v103l248 6v-94z" />
<glyph unicode="&#xf6;" horiz-adv-x="1392" d="M84 -53v140l270 5v-129zM85 827q16 135 112 239.5t246 154.5q109 36 227 36q45 0 91 -5q168 -19 303 -102q135 -82 205 -206q57 -101 57 -209q0 -25 -3 -50q-16 -135 -112 -239.5t-246 -154.5q-109 -36 -227 -36q-45 0 -91 5q-168 19 -303 102q-134 82 -204 206 q-57 102 -58 211q0 24 3 48zM543 -26v122l302 6v-109zM995 2v103l248 6v-94z" />
<glyph unicode="&#xf5;" horiz-adv-x="1392" d="M84 -53v140l270 5v-129zM85 827q16 135 112 239.5t246 154.5q109 36 227 36q45 0 91 -5q168 -19 303 -102q135 -82 205 -206q57 -101 57 -209q0 -25 -3 -50q-16 -135 -112 -239.5t-246 -154.5q-109 -36 -227 -36q-45 0 -91 5q-168 19 -303 102q-134 82 -204 206 q-57 102 -58 211q0 24 3 48zM543 -26v122l302 6v-109zM995 2v103l248 6v-94z" />
<glyph unicode="&#xf4;" horiz-adv-x="1392" d="M84 -53v140l270 5v-129zM85 827q16 135 112 239.5t246 154.5q109 36 227 36q45 0 91 -5q168 -19 303 -102q135 -82 205 -206q57 -101 57 -209q0 -25 -3 -50q-16 -135 -112 -239.5t-246 -154.5q-109 -36 -227 -36q-45 0 -91 5q-168 19 -303 102q-134 82 -204 206 q-57 102 -58 211q0 24 3 48zM543 -26v122l302 6v-109zM995 2v103l248 6v-94z" />
<glyph unicode="&#xf3;" horiz-adv-x="1392" d="M84 -53v140l270 5v-129zM85 827q16 135 112 239.5t246 154.5q109 36 227 36q45 0 91 -5q168 -19 303 -102q135 -82 205 -206q57 -101 57 -209q0 -25 -3 -50q-16 -135 -112 -239.5t-246 -154.5q-109 -36 -227 -36q-45 0 -91 5q-168 19 -303 102q-134 82 -204 206 q-57 102 -58 211q0 24 3 48zM543 -26v122l302 6v-109zM995 2v103l248 6v-94z" />
<glyph unicode="&#xf2;" horiz-adv-x="1392" d="M84 -53v140l270 5v-129zM85 827q16 135 112 239.5t246 154.5q109 36 227 36q45 0 91 -5q168 -19 303 -102q135 -82 205 -206q57 -101 57 -209q0 -25 -3 -50q-16 -135 -112 -239.5t-246 -154.5q-109 -36 -227 -36q-45 0 -91 5q-168 19 -303 102q-134 82 -204 206 q-57 102 -58 211q0 24 3 48zM543 -26v122l302 6v-109zM995 2v103l248 6v-94z" />
<glyph unicode="p" horiz-adv-x="796" d="M33 1245q9 2 24 5t62 9t93 9q22 1 49 1t59 -1q63 -3 117 -12.5t110.5 -32.5t97 -57t68.5 -89.5t33 -126.5q1 -20 1 -39q0 -68 -16 -128q-21 -77 -59 -127.5t-85.5 -90.5t-96.5 -62t-90 -36.5t-66 -18.5l-26 -5l35 -629h-227l-44 757l-5 80l-6 105l-8 144l-7 124l-6 98z " />
<glyph unicode="q" horiz-adv-x="1026" d="M49 913q0 128 95 219.5t229 91.5q81 0 150.5 -35.5t114.5 -96.5q0 31 0.5 67t0.5 38q0 34 15.5 57.5t37 29.5t43.5 1t37 -29t15 -59q0 -11 -2 -215q0 -19 -1 -60t-1 -64q-1 -50 -2 -154t-1 -154q-2 -134 -3 -207q0 -29 -0.5 -66.5t-1 -56.5t-0.5 -27q-1 -37 17 -53.5 t36.5 -1.5t19.5 55q2 81 13 128t42 47q33 0 44.5 -37.5t11.5 -121.5q0 -34 -1.5 -59t-6 -63t-16 -64.5t-29 -53t-47.5 -40t-69 -13.5q-40 0 -69 14t-45.5 39t-27.5 59.5t-14 76t-4 88.5q-1 20 -1 41q0 27 1 55v54q0 47 2 199q1 30 1.5 94t0.5 95q-45 -59 -113.5 -93.5 t-147.5 -34.5q-134 0 -229 91t-95 219z" />
<glyph unicode="r" horiz-adv-x="962" d="M98 111v982h434l8 -145q36 33 76.5 54t81.5 28q13 2 26 2q28 0 52 -10q36 -15 64 -49.5t43 -100.5q13 -55 13 -128q0 -14 -1 -30l-142 -7q-9 67 -41 99q-28 27 -57 27q-5 -1 -11 -1q-36 -6 -63.5 -44.5t-27.5 -97.5q0 -2 0.5 -6.5t0.5 -6.5l29 -566h-485z" />
<glyph unicode="s" horiz-adv-x="1157" d="M66 685q0 126 59.5 204t180.5 85h23h121h641v-138h-424q-45 0 -65 -38q-10 -20 -10 -39t9 -37q18 -38 66 -37h175q81 0 125 -13q124 -37 124 -214q0 -218 -136 -269q-42 -16 -101 -19q-4 0 -13 -0.5t-14 -0.5h-748v147h603q32 0 51 19t20 42.5t-17.5 42.5t-53.5 19h-232 h-107q-7 0 -19 0.5t-18 0.5q-73 3 -120.5 19t-73.5 48.5t-36 73.5t-10 104z" />
<glyph unicode="t" horiz-adv-x="968" d="M36 487q-12 25 22 45q28 15 69 16q-68 55 -68 96q0 27 36 27q9 0 21 -2q46 -8 117 -46q-5 175 -5 318v79q3 173 50 183h3q25 0 52 -41q6 26 20.5 37t33 1.5t32.5 -38.5q5 22 16.5 33.5t29.5 3.5t36 -41q26 40 48 40q12 0 23 -11q29 -29 29 -103q0 -2 3 -171 q2 -101 2 -197q0 -64 -1 -126h181q28 0 49.5 -12.5t28.5 -31.5t4 -38t-24.5 -34t-57.5 -19q-56 -6 -101.5 -8.5t-63.5 -2.5h-18q1 -98 9 -150.5t21 -69t35 -15.5q55 2 59 143q1 33 14 47.5t29 4t26 -41.5q6 21 18.5 29.5t25.5 -1.5t20 -38q8 19 22.5 27.5t26 -2t10.5 -38.5 q-2 -67 -22 -125t-60 -107.5t-111 -78t-166 -28.5q-75 0 -132.5 23.5t-89.5 57.5t-53 85t-28.5 92.5t-11.5 93.5q0 3 -1 11.5t-1 12.5q-84 -49 -135 -49h-9q-26 3 -26 22q0 13 12 34q16 29 57 69q-89 0 -106 35z" />
<glyph unicode="u" horiz-adv-x="1005" d="M16 1135l18 159l460 -22q0 -32 0.5 -120t0.5 -133q0 -122 -1 -153v-5q0 -37 14 -63q14 -28 36 -36t44 -2.5t38 34t17 72.5q3 133 4 147q8 218 9 251l315 -15v-108h-90q15 -59 18 -139v-27q0 -40 -4 -78q-6 -50 -28.5 -107.5t-61 -98.5t-108.5 -68.5t-164 -27.5 q-97 0 -169 30.5t-110.5 75.5t-60.5 107q-22 64 -27 116q-3 33 -3 67q0 21 1 43q1 33 5 64.5t7 47.5l4 15zM261 298q6 6 16.5 6.5t25 -4.5t29 -11t34 -16.5t33.5 -18.5t34.5 -20.5t31.5 -18.5q30 -17 54 -32q-2 116 -3 155v17q0 49 10 83q12 40 37 41q18 1 28.5 -9.5 t15.5 -35.5t5 -65t-3 -98q-1 -10 -1 -30.5t-1 -30.5q43 31 66 45q20 12 32.5 20t32.5 18.5t33.5 16t28.5 9t26 0.5t18 -11q18 -15 3.5 -39t-74.5 -63q-83 -53 -141 -93q96 -60 132 -87q53 -39 53 -68q0 -13 -11 -23q-11 -7 -21.5 -8.5t-28 7.5t-32.5 19t-36 27 q-23 19 -86 57q-2 -92 -6 -139q-3 -39 -29 -47.5t-40 24.5q-10 21 -9 53q1 28 1 107q-46 -33 -47 -34q-70 -53 -117 -75q-23 -11 -40 -11t-27 12q-9 10 -9 21q1 16 19 36q30 34 106 85q5 3 27.5 18t34.5 24q-53 28 -93 53q-121 75 -121 115q0 11 9 19z" />
<glyph unicode="&#xfb;" horiz-adv-x="1005" d="M16 1135l18 159l460 -22q0 -32 0.5 -120t0.5 -133q0 -122 -1 -153v-5q0 -37 14 -63q14 -28 36 -36t44 -2.5t38 34t17 72.5q3 133 4 147q8 218 9 251l315 -15v-108h-90q15 -59 18 -139v-27q0 -40 -4 -78q-6 -50 -28.5 -107.5t-61 -98.5t-108.5 -68.5t-164 -27.5 q-97 0 -169 30.5t-110.5 75.5t-60.5 107q-22 64 -27 116q-3 33 -3 67q0 21 1 43q1 33 5 64.5t7 47.5l4 15zM261 298q6 6 16.5 6.5t25 -4.5t29 -11t34 -16.5t33.5 -18.5t34.5 -20.5t31.5 -18.5q30 -17 54 -32q-2 116 -3 155v17q0 49 10 83q12 40 37 41q18 1 28.5 -9.5 t15.5 -35.5t5 -65t-3 -98q-1 -10 -1 -30.5t-1 -30.5q43 31 66 45q20 12 32.5 20t32.5 18.5t33.5 16t28.5 9t26 0.5t18 -11q18 -15 3.5 -39t-74.5 -63q-83 -53 -141 -93q96 -60 132 -87q53 -39 53 -68q0 -13 -11 -23q-11 -7 -21.5 -8.5t-28 7.5t-32.5 19t-36 27 q-23 19 -86 57q-2 -92 -6 -139q-3 -39 -29 -47.5t-40 24.5q-10 21 -9 53q1 28 1 107q-46 -33 -47 -34q-70 -53 -117 -75q-23 -11 -40 -11t-27 12q-9 10 -9 21q1 16 19 36q30 34 106 85q5 3 27.5 18t34.5 24q-53 28 -93 53q-121 75 -121 115q0 11 9 19z" />
<glyph unicode="&#xfa;" horiz-adv-x="1005" d="M16 1135l18 159l460 -22q0 -32 0.5 -120t0.5 -133q0 -122 -1 -153v-5q0 -37 14 -63q14 -28 36 -36t44 -2.5t38 34t17 72.5q3 133 4 147q8 218 9 251l315 -15v-108h-90q15 -59 18 -139v-27q0 -40 -4 -78q-6 -50 -28.5 -107.5t-61 -98.5t-108.5 -68.5t-164 -27.5 q-97 0 -169 30.5t-110.5 75.5t-60.5 107q-22 64 -27 116q-3 33 -3 67q0 21 1 43q1 33 5 64.5t7 47.5l4 15zM261 298q6 6 16.5 6.5t25 -4.5t29 -11t34 -16.5t33.5 -18.5t34.5 -20.5t31.5 -18.5q30 -17 54 -32q-2 116 -3 155v17q0 49 10 83q12 40 37 41q18 1 28.5 -9.5 t15.5 -35.5t5 -65t-3 -98q-1 -10 -1 -30.5t-1 -30.5q43 31 66 45q20 12 32.5 20t32.5 18.5t33.5 16t28.5 9t26 0.5t18 -11q18 -15 3.5 -39t-74.5 -63q-83 -53 -141 -93q96 -60 132 -87q53 -39 53 -68q0 -13 -11 -23q-11 -7 -21.5 -8.5t-28 7.5t-32.5 19t-36 27 q-23 19 -86 57q-2 -92 -6 -139q-3 -39 -29 -47.5t-40 24.5q-10 21 -9 53q1 28 1 107q-46 -33 -47 -34q-70 -53 -117 -75q-23 -11 -40 -11t-27 12q-9 10 -9 21q1 16 19 36q30 34 106 85q5 3 27.5 18t34.5 24q-53 28 -93 53q-121 75 -121 115q0 11 9 19z" />
<glyph unicode="&#xf9;" horiz-adv-x="1005" d="M16 1135l18 159l460 -22q0 -32 0.5 -120t0.5 -133q0 -122 -1 -153v-5q0 -37 14 -63q14 -28 36 -36t44 -2.5t38 34t17 72.5q3 133 4 147q8 218 9 251l315 -15v-108h-90q15 -59 18 -139v-27q0 -40 -4 -78q-6 -50 -28.5 -107.5t-61 -98.5t-108.5 -68.5t-164 -27.5 q-97 0 -169 30.5t-110.5 75.5t-60.5 107q-22 64 -27 116q-3 33 -3 67q0 21 1 43q1 33 5 64.5t7 47.5l4 15zM261 298q6 6 16.5 6.5t25 -4.5t29 -11t34 -16.5t33.5 -18.5t34.5 -20.5t31.5 -18.5q30 -17 54 -32q-2 116 -3 155v17q0 49 10 83q12 40 37 41q18 1 28.5 -9.5 t15.5 -35.5t5 -65t-3 -98q-1 -10 -1 -30.5t-1 -30.5q43 31 66 45q20 12 32.5 20t32.5 18.5t33.5 16t28.5 9t26 0.5t18 -11q18 -15 3.5 -39t-74.5 -63q-83 -53 -141 -93q96 -60 132 -87q53 -39 53 -68q0 -13 -11 -23q-11 -7 -21.5 -8.5t-28 7.5t-32.5 19t-36 27 q-23 19 -86 57q-2 -92 -6 -139q-3 -39 -29 -47.5t-40 24.5q-10 21 -9 53q1 28 1 107q-46 -33 -47 -34q-70 -53 -117 -75q-23 -11 -40 -11t-27 12q-9 10 -9 21q1 16 19 36q30 34 106 85q5 3 27.5 18t34.5 24q-53 28 -93 53q-121 75 -121 115q0 11 9 19z" />
<glyph unicode="v" horiz-adv-x="825" d="M16 1090h791l-395 -976l-198 488z" />
<glyph unicode="w" horiz-adv-x="1370" d="M33 771v270h1304v-270h-181l-217 -608l-254 608l-254 -608l-217 608h-181z" />
<glyph unicode="x" horiz-adv-x="1159" d="M66 70v206h157l140 184l108 142l-108 142l-140 184h-157v206h214l190 -249l109 -142l108 142l190 249h215v-206h-157l-140 -184l-109 -142l109 -142l140 -184h157v-206h-215l-190 249l-108 142l-109 -142l-190 -249h-214z" />
<glyph unicode="y" horiz-adv-x="1189" d="M33 1113v152h1033q42 -267 42 -490q0 -156 -20 -291q-51 -328 -214 -462q-100 -83 -237 -83q-90 0 -162.5 16.5t-116.5 43t-76 58t-46.5 63.5t-22 58.5t-7.5 43.5l-1 16h-110v115h294q61 -205 146 -230q12 -4 23 -4q48 0 88 68q56 97 56 255v21q-2 88 -23 176 q-69 -108 -174 -147q-45 -17 -86 -17q-70 0 -129 49q-142 117 -151 463q-1 24 -1 49q0 37 2 77h-107z" />
<glyph unicode="&#xfd;" horiz-adv-x="1189" d="M33 1113v152h1033q42 -267 42 -490q0 -156 -20 -291q-51 -328 -214 -462q-100 -83 -237 -83q-90 0 -162.5 16.5t-116.5 43t-76 58t-46.5 63.5t-22 58.5t-7.5 43.5l-1 16h-110v115h294q61 -205 146 -230q12 -4 23 -4q48 0 88 68q56 97 56 255v21q-2 88 -23 176 q-69 -108 -174 -147q-45 -17 -86 -17q-70 0 -129 49q-142 117 -151 463q-1 24 -1 49q0 37 2 77h-107z" />
<glyph unicode="z" horiz-adv-x="1142" d="M66 306q0 58 47.5 125.5t115 123t135.5 103t116 74.5l47 26q-103 10 -322 10q-63 0 -98 8.5t-39 22t10 29t46 31t73 26.5q-45 8 -77.5 18t-45 20.5t-6.5 20.5t42 17t98 11q-64 24 -87.5 52.5t0.5 47.5t87 19h296q56 0 146 -2q172 -4 271 -27q81 -19 118.5 -53.5 t37.5 -89.5q0 -97 -135.5 -218.5t-393.5 -278.5h394q103 0 117 -28q10 -19 -37 -38q-22 -8 -54 -15q86 -26 86 -48q0 -23 -88 -42q99 -25 110 -64q1 -4 1 -7q0 -26 -52 -43q-54 -18 -152 -18q-35 0 -128.5 -2.5t-153.5 -2.5q-7 0 -14 -1q-57 0 -147 4q-196 12 -286 65 q-78 46 -78 124z" />
<glyph unicode="&#xad;" d="M98 447v60q0 31 22.5 53.5t54.5 22.5h499q32 0 54 -22.5t22 -53.5v-60q0 -31 -22 -53.5t-54 -22.5h-499q-32 0 -54.5 22.5t-22.5 53.5z" />
<glyph unicode="&#xd7;" horiz-adv-x="866" d="M98 179l136 176l107 141l-77 119l-105 160h151l123 -160l123 160h151l-105 -160l-78 -119l108 -141l136 -176h-220l-115 176l-115 -176h-220z" />
<glyph unicode="&#xf7;" horiz-adv-x="780" d="M98 427v129h582v-158zM295 245q0 36 27 65t67 29q39 0 66.5 -27.5t27.5 -66.5q0 -37 -26 -65q-27 -29 -68 -29q-39 0 -66.5 27.5t-27.5 66.5zM295 709q0 39 27.5 66.5t66.5 27.5q44 0 72 -34q22 -25 22 -60q0 -39 -27.5 -66.5t-66.5 -27.5q-44 0 -72 34q-22 25 -22 60z " />
<glyph unicode="&#x2000;" horiz-adv-x="843" />
<glyph unicode="&#x2001;" horiz-adv-x="1687" />
<glyph unicode="&#x2002;" horiz-adv-x="843" />
<glyph unicode="&#x2003;" horiz-adv-x="1687" />
<glyph unicode="&#x2004;" horiz-adv-x="562" />
<glyph unicode="&#x2005;" horiz-adv-x="421" />
<glyph unicode="&#x2006;" horiz-adv-x="281" />
<glyph unicode="&#x2007;" horiz-adv-x="281" />
<glyph unicode="&#x2008;" horiz-adv-x="210" />
<glyph unicode="&#x2009;" horiz-adv-x="337" />
<glyph unicode="&#x200a;" horiz-adv-x="93" />
<glyph unicode="&#x2010;" d="M98 447v60q0 31 22.5 53.5t54.5 22.5h499q32 0 54 -22.5t22 -53.5v-60q0 -31 -22 -53.5t-54 -22.5h-499q-32 0 -54.5 22.5t-22.5 53.5z" />
<glyph unicode="&#x2011;" d="M98 447v60q0 31 22.5 53.5t54.5 22.5h499q32 0 54 -22.5t22 -53.5v-60q0 -31 -22 -53.5t-54 -22.5h-499q-32 0 -54.5 22.5t-22.5 53.5z" />
<glyph unicode="&#x2012;" d="M98 447v60q0 31 22.5 53.5t54.5 22.5h499q32 0 54 -22.5t22 -53.5v-60q0 -31 -22 -53.5t-54 -22.5h-499q-32 0 -54.5 22.5t-22.5 53.5z" />
<glyph unicode="&#x2013;" horiz-adv-x="1221" d="M98 447v60q0 31 35.5 53.5t85.5 22.5h784q50 0 84.5 -22.5t34.5 -53.5v-60q0 -31 -34.5 -53.5t-84.5 -22.5h-784q-50 0 -85.5 22.5t-35.5 53.5z" />
<glyph unicode="&#x2014;" horiz-adv-x="2245" d="M98 447v60q0 31 70.5 53.5t171.5 22.5h1567q101 0 170 -22.5t69 -53.5v-60q0 -31 -69 -53.5t-170 -22.5h-1567q-101 0 -171.5 22.5t-70.5 53.5z" />
<glyph unicode="&#x2018;" horiz-adv-x="419" d="M113 1047q26 54 94 89q83 44 67 10q-12 -27 -67 -81q39 0 66.5 -16t38.5 -39t9 -50t-17 -50q-31 -48 -97 -48q-60 0 -93 60t-1 125z" />
<glyph unicode="&#x2019;" horiz-adv-x="419" d="M99 1061.5q2 26.5 17 49.5q32 49 97 49q60 0 92.5 -60t0.5 -125q-26 -54 -93 -89q-83 -44 -67 -10q12 27 67 81q-39 0 -66.5 15.5t-38.5 39t-9 50z" />
<glyph unicode="&#x201c;" horiz-adv-x="724" d="M113 1047q26 54 94 89q83 44 67 10q-12 -27 -67 -81q39 0 66.5 -16t38.5 -39t9 -50t-17 -50q-31 -48 -97 -48q-60 0 -93 60t-1 125zM417 1047q26 54 93 89q83 44 67 10q-12 -27 -67 -81q39 0 67 -15.5t38.5 -39t9 -50t-16.5 -49.5q-32 -49 -98 -49q-60 0 -92.5 60 t-0.5 125z" />
<glyph unicode="&#x201d;" horiz-adv-x="724" d="M99 1061.5q2 26.5 17 49.5q32 49 97 49q60 0 92.5 -60t0.5 -125q-26 -54 -93 -89q-83 -44 -67 -10q12 27 67 81q-39 0 -66.5 15.5t-38.5 39t-9 50zM402.5 1061.5q1.5 26.5 16.5 49.5q31 49 98 49q60 0 92.5 -60t0.5 -125q-26 -54 -93 -89q-83 -44 -67 -10q12 27 67 81 q-39 0 -67 15.5t-38.5 39t-9 50z" />
<glyph unicode="&#x202f;" horiz-adv-x="337" />
<glyph unicode="&#x205f;" horiz-adv-x="421" />
<glyph unicode="&#x25fc;" horiz-adv-x="1136" d="M0 0v1137h1137v-1137h-1137z" />
</font>
</defs>
</svg>
